<svg width="172" height="30" viewBox="0 0 172 30" fill="none" xmlns="http://www.w3.org/2000/svg">
<path d="M47.958 24H51.75V17.28L58.278 7.2H53.574L49.854 13.44L46.134 7.2H41.43L47.958 17.28V24ZM68.1409 24.408C72.9889 24.408 76.9249 20.496 76.9249 15.624C76.9249 10.776 72.9889 6.864 68.1409 6.864C63.2929 6.864 59.3569 10.776 59.3569 15.624C59.3569 20.496 63.2929 24.408 68.1409 24.408ZM68.1409 20.736C65.3809 20.736 63.2209 18.48 63.2209 15.624C63.2209 12.768 65.3809 10.536 68.1409 10.536C70.9009 10.536 73.0609 12.768 73.0609 15.624C73.0609 18.48 70.9009 20.736 68.1409 20.736ZM87.5897 24.408C91.8737 24.408 94.9097 22.248 94.9097 16.8V7.2H91.1177V16.584C91.1177 19.848 89.3657 20.88 87.5897 20.88C85.8137 20.88 84.0617 19.848 84.0617 16.584V7.2H80.2697V16.8C80.2697 22.248 83.3297 24.408 87.5897 24.408ZM99.7022 24H103.446V18.576H105.69L108.942 24H113.43L109.53 17.736C111.306 16.656 112.542 14.808 112.542 12.792C112.542 9.6 109.926 7.2 106.278 7.2H99.7022V24ZM103.446 15.432V10.632H106.23C107.742 10.632 108.75 11.736 108.75 13.032C108.75 14.328 107.742 15.432 106.23 15.432H103.446ZM122.037 24.288C125.877 24.288 128.421 21.984 128.421 18.84C128.421 13.152 120.069 14.352 120.069 12C120.069 11.112 121.269 10.464 123.045 10.464C124.461 10.464 126.105 11.016 127.293 11.748V7.896C126.021 7.284 124.173 6.912 122.637 6.912C118.821 6.912 116.301 9.168 116.301 12.288C116.301 17.904 124.485 16.776 124.485 19.152C124.485 20.256 122.709 20.64 121.437 20.64C119.361 20.64 117.801 19.944 116.469 19.08V23.076C117.693 23.664 119.349 24.288 122.037 24.288ZM132.187 24H136.003V7.2H132.187V24ZM144.361 24H148.153V10.752H152.665V7.2H139.849V10.752H144.361V24ZM156.515 24H167.939V20.544H160.259V17.208H166.475V13.704H160.259V10.608H167.603V7.2H156.515V24Z" fill="white"/>
<path fill-rule="evenodd" clip-rule="evenodd" d="M31.4253 30H5.16753C2.44588 30 0.25 27.8041 0.25 25.0825V4.91752C0.25 2.19587 2.44588 0 5.16753 0H31.4253C34.1469 0 36.3428 2.19587 36.3428 4.91752V25.0825C36.3119 27.8041 34.116 30 31.4253 30ZM11.9098 14.8763L15.8994 7.14434H18.8994L13.2706 17.5052L10.4871 24.0619L11.9097 14.8764L10.518 17.598L4.88916 7.14434H7.88917L11.9098 14.8763ZM30.2191 16.6391C30.5284 17.2268 30.6831 17.969 30.6831 18.8041C30.6831 20.5051 30.281 22.1752 28.8274 22.701C27.4666 23.1958 26.3222 21.7731 26.9408 20.7525C27.2501 20.1958 26.9408 18.402 26.6934 18.0927L30.2191 16.6391ZM23.0746 16.1133C24.0953 16.4845 24.8685 16.8556 25.4561 17.1649C26.0128 17.4741 29.4148 15.4948 28.7963 15.0618C28.1468 14.5979 27.0953 14.103 25.6726 13.5463C23.9715 12.8968 22.8581 12.3711 22.3633 11.9999C21.8375 11.6288 18.3118 13.0205 19.0231 13.7937C19.7344 14.5669 21.0953 15.3401 23.0746 16.1133ZM17.9407 10.7937C17.9407 9.3092 18.5283 8.16487 19.7345 7.32982C20.9407 6.5257 22.5489 6.09271 24.6211 6.09271C26.6623 6.09271 28.5799 6.49477 30.4046 7.32982L29.2293 10.1133C27.3737 9.34013 25.7963 8.96899 24.5283 8.96899C22.5799 8.96899 21.6211 9.52569 21.6211 10.6391C21.5902 11.1649 17.9407 11.9999 17.9407 10.7937ZM18.4357 23.0413C19.8583 23.7526 21.6831 24.0928 24.0027 24.0928C26.2913 24.0928 26.3841 21.2784 24.1264 21.2784C22.3635 21.2784 20.4769 20.7836 18.4357 19.8557V23.0413Z" fill="white"/>
</svg>
