<svg width="2629" height="1835" viewBox="0 0 2629 1835" fill="none" xmlns="http://www.w3.org/2000/svg">
<path d="M1122.79 108.182H1426.26L853.373 1162.67L853.35 1162.71L853.331 1162.76L572.776 1823.62L716.521 895.529L1122.79 108.182Z" fill="white" stroke="white" stroke-width="10"/>
<path d="M714.41 895.219L573.666 1170.45L1.67422 108.182H305.15L714.41 895.219Z" fill="white" stroke="white" stroke-width="10"/>
<path d="M2439.42 1691.75L2439.42 1691.76C2370.49 1716.82 2307.08 1693.33 2268.71 1650.65C2230.32 1607.96 2217.09 1546.18 2248.33 1494.63L2248.34 1494.61L2248.35 1494.6C2256.35 1480.2 2260.3 1457.94 2261.38 1432.29C2262.47 1406.61 2260.69 1377.4 2257.14 1348.99C2253.59 1320.58 2248.26 1292.95 2242.24 1270.44C2239.23 1259.19 2236.04 1249.2 2232.81 1241.03C2229.64 1233.03 2226.41 1226.7 2223.22 1222.63L2581.61 1074.88L2580.72 1075.34C2612.15 1135.05 2627.89 1210.53 2627.89 1295.53C2627.89 1382.15 2617.65 1467.9 2588.95 1538.65C2560.27 1609.38 2513.16 1665.08 2439.42 1691.75Z" fill="white" stroke="white" stroke-width="10"/>
<path d="M2096.65 1127.59L2096.64 1127.58L2096.63 1127.58C2036.71 1096.04 1957.86 1058.2 1853.8 1020.35C1652.09 941.559 1513.59 862.824 1441.25 784.201C1432.42 774.6 1430.19 764.115 1433.1 753.101C1436.02 742.008 1444.18 730.304 1456.29 718.463C1480.5 694.792 1520.17 670.912 1563.87 650.638C1607.55 630.371 1655.16 613.748 1695.18 604.556C1715.19 599.959 1733.26 597.228 1747.99 596.818C1762.76 596.406 1773.94 598.341 1780.36 602.863C1830.93 640.785 1944.53 694.411 2117.86 760.594C2262.85 817.33 2369.92 867.726 2436.01 914.93L2436.02 914.935C2439.78 917.572 2441.96 920.747 2442.81 924.369C2443.66 928.015 2443.19 932.222 2441.45 936.944C2437.97 946.413 2429.5 957.665 2417.26 969.952C2392.82 994.494 2353.69 1022.81 2310.77 1048.8C2267.86 1074.78 2221.23 1098.4 2181.8 1113.54C2162.08 1121.11 2144.19 1126.56 2129.49 1129.13C2114.73 1131.71 2103.41 1131.35 2096.65 1127.59Z" fill="white" stroke="white" stroke-width="10"/>
<path d="M1331.17 479.124C1331.17 328.144 1390.91 211.828 1513.56 126.913C1636.28 45.1002 1799.98 1 2011.03 1C2218.61 1 2413.61 41.82 2599.18 126.591L2480.17 408.472C2291.37 329.9 2130.78 292.148 2001.58 292.148C1902.22 292.148 1827.94 306.336 1778.46 334.835C1728.9 363.379 1704.28 406.254 1704.28 463.333C1704.09 466.388 1702.58 469.655 1699.77 473.088C1696.95 476.527 1692.88 480.068 1687.69 483.644C1677.3 490.797 1662.6 498.004 1644.98 504.787C1609.74 518.349 1563.03 530.152 1516.41 536.447C1469.77 542.745 1423.32 543.516 1388.57 535.087C1371.2 530.874 1356.84 524.379 1346.84 515.203C1336.86 506.054 1331.17 494.203 1331.17 479.124Z" fill="white" stroke="white" stroke-width="10"/>
<path d="M1948.02 1833.56C1711.99 1833.56 1526.36 1798.98 1381.63 1726.77V1404.27C1589.22 1498.46 1781.18 1548.72 1960.63 1548.72C2017.94 1548.72 2060.23 1566.57 2087.84 1593.25C2115.45 1619.94 2128.45 1655.51 2127.08 1691.1C2124.35 1762.21 2064.18 1833.56 1948.02 1833.56Z" fill="white" stroke="white" stroke-width="10"/>
</svg>
